<svg version="1.1" id="Layer_1" xmlns="http://www.w3.org/2000/svg" xmlns:xlink="http://www.w3.org/1999/xlink" x="0px" y="0px"
	 width="100%" viewBox="0 0 225 225" enable-background="new 0 0 225 225" xml:space="preserve">
<path fill="#FEFEFE" opacity="1.000000" stroke="none" 
	d="
M131.000000,226.000000 
	C87.333336,226.000000 44.166672,226.000000 1.000006,226.000000 
	C1.000004,151.000000 1.000004,76.000015 1.000002,1.000016 
	C75.999992,1.000011 150.999985,1.000011 225.999969,1.000005 
	C225.999985,75.999985 225.999985,150.999969 226.000000,225.999969 
	C194.500000,226.000000 163.000000,226.000000 131.000000,226.000000 
M150.583176,11.845232 
	C100.125839,-2.976444 48.259991,16.501732 28.843224,47.492405 
	C42.668182,55.423828 56.485516,63.350876 70.261269,71.254066 
	C71.121887,70.506897 71.662468,70.116295 72.109497,69.638214 
	C97.407623,42.583080 152.639648,46.373844 170.058914,85.046425 
	C170.682648,86.431183 173.291840,87.666008 174.999832,87.698433 
	C186.988846,87.926025 198.984207,87.819107 210.977539,87.819138 
	C213.887863,87.819145 216.798187,87.819138 220.390411,87.819138 
	C211.048904,49.172764 188.324234,24.128262 150.583176,11.845232 
M65.362259,209.195221 
	C85.882721,218.617325 107.449318,221.543579 129.732681,218.972580 
	C159.345459,215.555939 184.210739,203.159683 202.448639,178.996429 
	C211.375763,167.168945 217.058609,153.860992 220.089081,138.728836 
	C204.052322,138.728836 188.592972,138.666183 173.136734,138.856598 
	C171.991653,138.870712 170.629440,140.532425 169.777435,141.721466 
	C166.110458,146.839035 163.243912,152.695389 158.917572,157.147430 
	C136.874496,179.830963 96.757805,180.262878 73.607117,158.557953 
	C72.329269,157.359909 69.541573,156.029449 68.473526,156.615112 
	C55.070442,163.964371 41.855038,171.655884 28.601299,179.254181 
	C33.937618,188.957764 49.059895,201.298920 65.362259,209.195221 
M5.926274,117.188614 
	C8.629520,137.517548 26.484753,149.475571 46.670731,144.475998 
	C64.695938,140.011597 74.490395,122.517616 69.533401,103.640709 
	C65.057106,86.594376 46.811420,76.703201 28.934002,81.631348 
	C13.594036,85.860016 5.432115,98.108894 5.926274,117.188614 
z"/>
<path fill="#434343" opacity="1.000000" stroke="none" 
	d="
M150.974213,11.945162 
	C188.324234,24.128262 211.048904,49.172764 220.390411,87.819138 
	C216.798187,87.819138 213.887863,87.819145 210.977539,87.819138 
	C198.984207,87.819107 186.988846,87.926025 174.999832,87.698433 
	C173.291840,87.666008 170.682648,86.431183 170.058914,85.046425 
	C152.639648,46.373844 97.407623,42.583080 72.109497,69.638214 
	C71.662468,70.116295 71.121887,70.506897 70.261269,71.254066 
	C56.485516,63.350876 42.668182,55.423828 28.843224,47.492405 
	C48.259991,16.501732 100.125839,-2.976444 150.974213,11.945162 
z"/>
<path fill="#434343" opacity="1.000000" stroke="none" 
	d="
M65.016319,209.047653 
	C49.059895,201.298920 33.937618,188.957764 28.601299,179.254181 
	C41.855038,171.655884 55.070442,163.964371 68.473526,156.615112 
	C69.541573,156.029449 72.329269,157.359909 73.607117,158.557953 
	C96.757805,180.262878 136.874496,179.830963 158.917572,157.147430 
	C163.243912,152.695389 166.110458,146.839035 169.777435,141.721466 
	C170.629440,140.532425 171.991653,138.870712 173.136734,138.856598 
	C188.592972,138.666183 204.052322,138.728836 220.089081,138.728836 
	C217.058609,153.860992 211.375763,167.168945 202.448639,178.996429 
	C184.210739,203.159683 159.345459,215.555939 129.732681,218.972580 
	C107.449318,221.543579 85.882721,218.617325 65.016319,209.047653 
z"/>
<path fill="#EDAA33" opacity="1.000000" stroke="none" 
	d="
M5.890386,116.728088 
	C5.432115,98.108894 13.594036,85.860016 28.934002,81.631348 
	C46.811420,76.703201 65.057106,86.594376 69.533401,103.640709 
	C74.490395,122.517616 64.695938,140.011597 46.670731,144.475998 
	C26.484753,149.475571 8.629520,137.517548 5.890386,116.728088 
z"/>
</svg>