<svg version="1.1" id="Layer_1" xmlns="http://www.w3.org/2000/svg" xmlns:xlink="http://www.w3.org/1999/xlink" x="0px" y="0px"
	 width="100%" viewBox="0 0 225 225" enable-background="new 0 0 225 225" xml:space="preserve">
<path fill="#FFFEFE" opacity="1.000000" stroke="none" 
	d="
M132.000000,226.000000 
	C88.000000,226.000000 44.500004,226.000000 1.000006,226.000000 
	C1.000004,151.000000 1.000004,76.000015 1.000002,1.000016 
	C75.999992,1.000011 150.999985,1.000011 225.999969,1.000005 
	C225.999985,75.999985 225.999985,150.999969 226.000000,225.999969 
	C194.833328,226.000000 163.666672,226.000000 132.000000,226.000000 
M15.191092,95.059746 
	C15.176978,107.353569 15.162865,119.647400 15.304907,132.607040 
	C47.148991,150.296097 78.969826,168.027557 110.909142,185.542984 
	C112.428650,186.376251 115.345757,185.932526 117.025330,185.012497 
	C144.015442,170.227859 170.908401,155.265915 197.830750,140.357452 
	C199.453812,139.458664 201.138031,138.670349 203.407166,137.519547 
	C203.407166,143.979477 203.235931,149.471725 203.473953,154.946182 
	C203.608170,158.033249 202.471664,159.657166 199.788330,161.147034 
	C172.157059,176.488693 144.583328,191.934677 117.066734,207.481079 
	C114.400650,208.987381 112.464340,208.900101 109.840904,207.416458 
	C86.819626,194.397186 63.712875,181.529068 40.633076,168.613266 
	C34.536701,165.201614 28.536840,161.598007 22.294680,158.478729 
	C20.526026,157.594925 17.889494,157.599304 15.988667,158.223953 
	C15.167040,158.493942 14.637866,161.515091 15.021720,163.019699 
	C15.344974,164.286789 17.032869,165.435730 18.370838,166.180191 
	C49.040409,183.245438 79.764076,200.213593 110.404877,217.330170 
	C112.749298,218.639816 114.325027,218.592209 116.627258,217.305176 
	C140.874832,203.750031 165.218842,190.367493 189.490479,176.855118 
	C196.997162,172.676056 204.364594,168.246841 212.106415,163.049881 
	C212.008057,151.057480 211.909714,139.065079 211.570114,126.399979 
	C208.588699,123.795761 206.001328,125.747025 203.440720,127.178169 
	C174.692154,143.245834 145.978134,159.375610 117.167274,175.330566 
	C115.474220,176.268158 112.527412,176.762573 111.010117,175.926941 
	C82.744667,160.360291 54.596718,144.579834 26.480419,128.744278 
	C25.245380,128.048691 23.782928,126.434799 23.727148,125.190353 
	C23.446527,118.929825 23.598370,112.649910 23.598370,105.733757 
	C25.986349,106.982239 27.730000,107.848976 29.432272,108.790535 
	C56.066708,123.522392 82.713608,138.231949 109.300125,153.049850 
	C112.132187,154.628281 114.323143,154.972107 117.401917,153.247604 
	C147.584900,136.341400 177.882690,119.640213 208.125534,102.840622 
	C209.495865,102.079407 210.653030,100.934471 212.120895,99.056023 
	C212.041840,87.386024 211.962769,75.716034 211.711136,63.321945 
	C209.041092,61.022781 206.698990,62.172607 204.046143,63.665031 
	C175.197784,79.894379 146.268982,95.980858 117.441551,112.247108 
	C114.657860,113.817856 112.650742,114.007240 109.769478,112.375854 
	C83.571655,97.542625 57.269550,82.893600 31.007309,68.174004 
	C29.961374,67.587776 29.009163,66.834320 27.694321,65.942429 
	C29.476410,64.904022 30.743635,64.135414 32.038109,63.415810 
	C57.188732,49.434418 82.410286,35.578049 107.432053,21.369833 
	C111.836693,18.868725 115.031273,18.742727 119.484245,21.300489 
	C139.529541,32.814404 159.843994,43.858776 179.991013,55.197514 
	C183.265900,57.040623 185.505783,56.473454 187.438568,53.492203 
	C189.701233,50.002140 187.045609,48.910576 184.639053,47.575756 
	C161.946548,34.989143 139.257812,22.395586 116.609497,9.729807 
	C114.604431,8.608497 113.115242,8.157721 110.827682,9.439450 
	C79.920464,26.756859 48.921585,43.910702 18.020147,61.238335 
	C16.592903,62.038643 14.974616,64.143036 15.051690,65.552200 
	C15.141817,67.200020 16.630665,69.401726 18.138628,70.248573 
	C48.595329,87.352562 79.165466,104.254501 109.631958,121.341187 
	C112.445229,122.918968 114.450172,122.992653 117.307716,121.383614 
	C142.380432,107.265564 167.556549,93.331123 192.706772,79.350830 
	C196.002777,77.518684 199.325699,75.734947 203.407333,73.508049 
	C203.407333,79.424477 203.113876,84.546043 203.498306,89.616219 
	C203.817413,93.824860 202.389923,96.076805 198.621185,98.150352 
	C171.662949,112.982597 144.821289,128.028717 118.052422,143.200668 
	C114.783669,145.053329 112.503723,145.237228 109.111847,143.313339 
	C80.322418,126.983833 51.386902,110.911980 22.511972,94.732918 
	C20.302050,93.494667 18.226698,91.878952 15.191092,95.059746 
z"/>
<path fill="#FF3822" opacity="1.000000" stroke="none" 
	d="
M211.795792,163.932159 
	C204.364594,168.246841 196.997162,172.676056 189.490479,176.855118 
	C165.218842,190.367493 140.874832,203.750031 116.627258,217.305176 
	C114.325027,218.592209 112.749298,218.639816 110.404877,217.330170 
	C79.764076,200.213593 49.040409,183.245438 18.370838,166.180191 
	C17.032869,165.435730 15.344974,164.286789 15.021720,163.019699 
	C14.637866,161.515091 15.167040,158.493942 15.988667,158.223953 
	C17.889494,157.599304 20.526026,157.594925 22.294680,158.478729 
	C28.536840,161.598007 34.536701,165.201614 40.633076,168.613266 
	C63.712875,181.529068 86.819626,194.397186 109.840904,207.416458 
	C112.464340,208.900101 114.400650,208.987381 117.066734,207.481079 
	C144.583328,191.934677 172.157059,176.488693 199.788330,161.147034 
	C202.471664,159.657166 203.608170,158.033249 203.473953,154.946182 
	C203.235931,149.471725 203.407166,143.979477 203.407166,137.519547 
	C201.138031,138.670349 199.453812,139.458664 197.830750,140.357452 
	C170.908401,155.265915 144.015442,170.227859 117.025330,185.012497 
	C115.345757,185.932526 112.428650,186.376251 110.909142,185.542984 
	C78.969826,168.027557 47.148991,150.296097 15.498602,131.966476 
	C15.767000,119.039665 15.841702,106.753410 15.916405,94.467163 
	C18.226698,91.878952 20.302050,93.494667 22.511972,94.732918 
	C51.386902,110.911980 80.322418,126.983833 109.111847,143.313339 
	C112.503723,145.237228 114.783669,145.053329 118.052422,143.200668 
	C144.821289,128.028717 171.662949,112.982597 198.621185,98.150352 
	C202.389923,96.076805 203.817413,93.824860 203.498306,89.616219 
	C203.113876,84.546043 203.407333,79.424477 203.407333,73.508049 
	C199.325699,75.734947 196.002777,77.518684 192.706772,79.350830 
	C167.556549,93.331123 142.380432,107.265564 117.307716,121.383614 
	C114.450172,122.992653 112.445229,122.918968 109.631958,121.341187 
	C79.165466,104.254501 48.595329,87.352562 18.138628,70.248573 
	C16.630665,69.401726 15.141817,67.200020 15.051690,65.552200 
	C14.974616,64.143036 16.592903,62.038643 18.020147,61.238335 
	C48.921585,43.910702 79.920464,26.756859 110.827682,9.439450 
	C113.115242,8.157721 114.604431,8.608497 116.609497,9.729807 
	C139.257812,22.395586 161.946548,34.989143 184.639053,47.575756 
	C187.045609,48.910576 189.701233,50.002140 187.438568,53.492203 
	C185.505783,56.473454 183.265900,57.040623 179.991013,55.197514 
	C159.843994,43.858776 139.529541,32.814404 119.484245,21.300489 
	C115.031273,18.742727 111.836693,18.868725 107.432053,21.369833 
	C82.410286,35.578049 57.188732,49.434418 32.038109,63.415810 
	C30.743635,64.135414 29.476410,64.904022 27.694321,65.942429 
	C29.009163,66.834320 29.961374,67.587776 31.007309,68.174004 
	C57.269550,82.893600 83.571655,97.542625 109.769478,112.375854 
	C112.650742,114.007240 114.657860,113.817856 117.441551,112.247108 
	C146.268982,95.980858 175.197784,79.894379 204.046143,63.665031 
	C206.698990,62.172607 209.041092,61.022781 211.518753,63.987663 
	C211.216553,74.702065 211.061447,84.750648 211.040451,94.799515 
	C211.036865,96.521820 211.605316,98.245308 211.909485,99.968262 
	C210.653030,100.934471 209.495865,102.079407 208.125534,102.840622 
	C177.882690,119.640213 147.584900,136.341400 117.401917,153.247604 
	C114.323143,154.972107 112.132187,154.628281 109.300125,153.049850 
	C82.713608,138.231949 56.066708,123.522392 29.432272,108.790535 
	C27.730000,107.848976 25.986349,106.982239 23.598370,105.733757 
	C23.598370,112.649910 23.446527,118.929825 23.727148,125.190353 
	C23.782928,126.434799 25.245380,128.048691 26.480419,128.744278 
	C54.596718,144.579834 82.744667,160.360291 111.010117,175.926941 
	C112.527412,176.762573 115.474220,176.268158 117.167274,175.330566 
	C145.978134,159.375610 174.692154,143.245834 203.440720,127.178169 
	C206.001328,125.747025 208.588699,123.795761 211.428253,127.049492 
	C211.189957,136.517471 211.013824,145.336166 211.038605,154.154282 
	C211.047760,157.414261 211.529556,160.672913 211.795792,163.932159 
z"/>
<path fill="#FF2200" opacity="1.000000" stroke="none" 
	d="
M15.553748,94.763458 
	C15.841702,106.753410 15.767000,119.039665 15.420524,131.633575 
	C15.162865,119.647400 15.176978,107.353569 15.553748,94.763458 
z"/>
<path fill="#FF2200" opacity="1.000000" stroke="none" 
	d="
M211.951111,163.491028 
	C211.529556,160.672913 211.047760,157.414261 211.038605,154.154282 
	C211.013824,145.336166 211.189957,136.517471 211.548889,127.385834 
	C211.909714,139.065079 212.008057,151.057480 211.951111,163.491028 
z"/>
<path fill="#FF2200" opacity="1.000000" stroke="none" 
	d="
M212.015198,99.512138 
	C211.605316,98.245308 211.036865,96.521820 211.040451,94.799515 
	C211.061447,84.750648 211.216553,74.702065 211.605042,64.349709 
	C211.962769,75.716034 212.041840,87.386024 212.015198,99.512138 
z"/>
</svg>